<?xml version="1.0" encoding="us-ascii" standalone="no"?><svg xmlns="http://www.w3.org/2000/svg" xmlns:xlink="http://www.w3.org/1999/xlink" contentStyleType="text/css" height="495px" preserveAspectRatio="none" style="width:725px;height:495px;background:#FFFFFF;" version="1.1" viewBox="0 0 725 495" width="725px" zoomAndPan="magnify"><defs/><g><!--cluster Website--><g id="cluster_Website"><rect fill="none" height="311.89" rx="2.5" ry="2.5" style="stroke:#181818;stroke-width:1.0;" width="337" x="148.268" y="7"/><rect fill="none" height="10" style="stroke:#181818;stroke-width:1.0;" width="15" x="465.268" y="12"/><rect fill="none" height="2" style="stroke:#181818;stroke-width:1.0;" width="4" x="463.268" y="14"/><rect fill="none" height="2" style="stroke:#181818;stroke-width:1.0;" width="4" x="463.268" y="18"/><text fill="#000000" font-family="sans-serif" font-size="14" font-weight="bold" lengthAdjust="spacing" textLength="64" x="284.768" y="32.9951">Website</text></g><!--cluster OCR--><g id="cluster_OCR"><rect fill="none" height="113.3" rx="2.5" ry="2.5" style="stroke:#181818;stroke-width:1.0;" width="192" x="11.268" y="375.89"/><rect fill="none" height="10" style="stroke:#181818;stroke-width:1.0;" width="15" x="183.268" y="380.89"/><rect fill="none" height="2" style="stroke:#181818;stroke-width:1.0;" width="4" x="181.268" y="382.89"/><rect fill="none" height="2" style="stroke:#181818;stroke-width:1.0;" width="4" x="181.268" y="386.89"/><text fill="#000000" font-family="sans-serif" font-size="14" font-weight="bold" lengthAdjust="spacing" textLength="33" x="90.768" y="401.8851">OCR</text></g><!--cluster FaceDetection--><g id="cluster_FaceDetection"><rect fill="none" height="113.3" rx="2.5" ry="2.5" style="stroke:#181818;stroke-width:1.0;" width="198" x="521.268" y="375.89"/><rect fill="none" height="10" style="stroke:#181818;stroke-width:1.0;" width="15" x="699.268" y="380.89"/><rect fill="none" height="2" style="stroke:#181818;stroke-width:1.0;" width="4" x="697.268" y="382.89"/><rect fill="none" height="2" style="stroke:#181818;stroke-width:1.0;" width="4" x="697.268" y="386.89"/><text fill="#000000" font-family="sans-serif" font-size="14" font-weight="bold" lengthAdjust="spacing" textLength="113" x="563.768" y="401.8851">FaceDetection</text></g><!--cluster ObjectRecognition--><g id="cluster_ObjectRecognition"><rect fill="none" height="113.3" rx="2.5" ry="2.5" style="stroke:#181818;stroke-width:1.0;" width="160" x="276.268" y="375.89"/><rect fill="none" height="10" style="stroke:#181818;stroke-width:1.0;" width="15" x="416.268" y="380.89"/><rect fill="none" height="2" style="stroke:#181818;stroke-width:1.0;" width="4" x="414.268" y="382.89"/><rect fill="none" height="2" style="stroke:#181818;stroke-width:1.0;" width="4" x="414.268" y="386.89"/><text fill="#000000" font-family="sans-serif" font-size="14" font-weight="bold" lengthAdjust="spacing" textLength="144" x="284.268" y="401.8851">ObjectRecognition</text></g><!--entity User Interface--><g id="elem_User Interface"><rect fill="#F1F1F1" height="46.2969" rx="2.5" ry="2.5" style="stroke:#181818;stroke-width:0.5;" width="136" x="164.268" y="42"/><rect fill="#F1F1F1" height="10" style="stroke:#181818;stroke-width:0.5;" width="15" x="280.268" y="47"/><rect fill="#F1F1F1" height="2" style="stroke:#181818;stroke-width:0.5;" width="4" x="278.268" y="49"/><rect fill="#F1F1F1" height="2" style="stroke:#181818;stroke-width:0.5;" width="4" x="278.268" y="53"/><text fill="#000000" font-family="sans-serif" font-size="14" lengthAdjust="spacing" textLength="96" x="179.268" y="74.9951">User Interface</text></g><!--entity Web Server--><g id="elem_Web Server"><rect fill="#F1F1F1" height="46.2969" rx="2.5" ry="2.5" style="stroke:#181818;stroke-width:0.5;" width="119" x="170.768" y="149.3"/><rect fill="#F1F1F1" height="10" style="stroke:#181818;stroke-width:0.5;" width="15" x="269.768" y="154.3"/><rect fill="#F1F1F1" height="2" style="stroke:#181818;stroke-width:0.5;" width="4" x="267.768" y="156.3"/><rect fill="#F1F1F1" height="2" style="stroke:#181818;stroke-width:0.5;" width="4" x="267.768" y="160.3"/><text fill="#000000" font-family="sans-serif" font-size="14" lengthAdjust="spacing" textLength="79" x="185.768" y="182.2951">Web Server</text></g><!--entity TTS Module--><g id="elem_TTS Module"><rect fill="#F1F1F1" height="46.2969" rx="2.5" ry="2.5" style="stroke:#181818;stroke-width:0.5;" width="122" x="164.268" y="256.6"/><rect fill="#F1F1F1" height="10" style="stroke:#181818;stroke-width:0.5;" width="15" x="266.268" y="261.6"/><rect fill="#F1F1F1" height="2" style="stroke:#181818;stroke-width:0.5;" width="4" x="264.268" y="263.6"/><rect fill="#F1F1F1" height="2" style="stroke:#181818;stroke-width:0.5;" width="4" x="264.268" y="267.6"/><text fill="#000000" font-family="sans-serif" font-size="14" lengthAdjust="spacing" textLength="82" x="179.268" y="289.5951">TTS Module</text></g><!--entity Camera Module--><g id="elem_Camera Module"><rect fill="#F1F1F1" height="46.2969" rx="2.5" ry="2.5" style="stroke:#181818;stroke-width:0.5;" width="148" x="321.268" y="256.6"/><rect fill="#F1F1F1" height="10" style="stroke:#181818;stroke-width:0.5;" width="15" x="449.268" y="261.6"/><rect fill="#F1F1F1" height="2" style="stroke:#181818;stroke-width:0.5;" width="4" x="447.268" y="263.6"/><rect fill="#F1F1F1" height="2" style="stroke:#181818;stroke-width:0.5;" width="4" x="447.268" y="267.6"/><text fill="#000000" font-family="sans-serif" font-size="14" lengthAdjust="spacing" textLength="108" x="336.268" y="289.5951">Camera Module</text></g><!--entity PyTesseract--><g id="elem_PyTesseract"><rect fill="#F1F1F1" height="46.2969" rx="2.5" ry="2.5" style="stroke:#181818;stroke-width:0.5;" width="125" x="54.768" y="418.89"/><rect fill="#F1F1F1" height="10" style="stroke:#181818;stroke-width:0.5;" width="15" x="159.768" y="423.89"/><rect fill="#F1F1F1" height="2" style="stroke:#181818;stroke-width:0.5;" width="4" x="157.768" y="425.89"/><rect fill="#F1F1F1" height="2" style="stroke:#181818;stroke-width:0.5;" width="4" x="157.768" y="429.89"/><text fill="#000000" font-family="sans-serif" font-size="14" lengthAdjust="spacing" textLength="85" x="69.768" y="451.8851">PyTesseract</text></g><!--entity HaarCascade--><g id="elem_HaarCascade"><rect fill="#F1F1F1" height="46.2969" rx="2.5" ry="2.5" style="stroke:#181818;stroke-width:0.5;" width="131" x="564.768" y="418.89"/><rect fill="#F1F1F1" height="10" style="stroke:#181818;stroke-width:0.5;" width="15" x="675.768" y="423.89"/><rect fill="#F1F1F1" height="2" style="stroke:#181818;stroke-width:0.5;" width="4" x="673.768" y="425.89"/><rect fill="#F1F1F1" height="2" style="stroke:#181818;stroke-width:0.5;" width="4" x="673.768" y="429.89"/><text fill="#000000" font-family="sans-serif" font-size="14" lengthAdjust="spacing" textLength="91" x="579.768" y="451.8851">HaarCascade</text></g><!--entity EdenAI--><g id="elem_EdenAI"><rect fill="#F1F1F1" height="46.2969" rx="2.5" ry="2.5" style="stroke:#181818;stroke-width:0.5;" width="88" x="322.268" y="418.89"/><rect fill="#F1F1F1" height="10" style="stroke:#181818;stroke-width:0.5;" width="15" x="390.268" y="423.89"/><rect fill="#F1F1F1" height="2" style="stroke:#181818;stroke-width:0.5;" width="4" x="388.268" y="425.89"/><rect fill="#F1F1F1" height="2" style="stroke:#181818;stroke-width:0.5;" width="4" x="388.268" y="429.89"/><text fill="#000000" font-family="sans-serif" font-size="14" lengthAdjust="spacing" textLength="48" x="337.268" y="451.8851">EdenAI</text></g><!--link User Interface to Web Server--><g id="link_User Interface_Web Server"><path d="M231.838,88.74 C231.498,106.51 231.1528,125.1411 230.8128,142.9011 " fill="none" id="User Interface-to-Web Server" style="stroke:#181818;stroke-width:1.0;"/><polygon fill="#181818" points="230.698,148.9,234.8695,139.9782,230.7937,143.9009,226.871,139.8251,230.698,148.9" style="stroke:#181818;stroke-width:1.0;"/></g><!--link Web Server to Camera Module--><g id="link_Web Server_Camera Module"><path d="M265.668,196.04 C293.508,213.8 327.0498,235.2127 354.8698,252.9627 " fill="none" id="Web Server-to-Camera Module" style="stroke:#181818;stroke-width:1.0;"/><polygon fill="#181818" points="359.928,256.19,354.4922,247.977,355.7128,253.5006,350.1892,254.7212,359.928,256.19" style="stroke:#181818;stroke-width:1.0;"/></g><!--link Web Server to TTS Module--><g id="link_Web Server_TTS Module"><path d="M229.198,196.04 C228.348,213.8 227.4616,232.4467 226.6216,250.1967 " fill="none" id="Web Server-to-TTS Module" style="stroke:#181818;stroke-width:1.0;"/><polygon fill="#181818" points="226.338,256.19,230.7589,247.3891,226.5743,251.1956,222.7679,247.011,226.338,256.19" style="stroke:#181818;stroke-width:1.0;"/></g><!--link Web Server to OCR--><g id="link_Web Server_OCR"><path d="M170.658,187.72 C132.888,199.84 86.078,221.08 58.268,256.6 C32.838,289.065 22.993,334.2525 19.5517,371.775 C19.4442,372.9476 19.8355,368.1329 19.7402,369.2899 " fill="none" id="Web Server-to-OCR" style="stroke:#181818;stroke-width:1.0;"/><polygon fill="#181818" points="19.2476,375.2697,23.973,366.6284,19.6581,370.2865,16,365.9716,19.2476,375.2697" style="stroke:#181818;stroke-width:1.0;"/><text fill="#000000" font-family="sans-serif" font-size="13" lengthAdjust="spacing" textLength="30" x="59.268" y="284.3069">uses</text></g><!--link Web Server to FaceDetection--><g id="link_Web Server_FaceDetection"><path d="M290.238,178.19 C347.668,185.76 433.338,205.45 487.268,256.6 C517.293,285.075 527.9355,330.2 531.0017,368.6875 C531.1934,371.093 531.0101,367.4825 531.1455,369.8304 " fill="none" id="Web Server-to-FaceDetection" style="stroke:#181818;stroke-width:1.0;"/><polygon fill="#181818" points="531.4907,375.8204,534.9662,366.6052,531.203,370.8287,526.9795,367.0655,531.4907,375.8204" style="stroke:#181818;stroke-width:1.0;"/><text fill="#000000" font-family="sans-serif" font-size="13" lengthAdjust="spacing" textLength="30" x="524.268" y="284.3069">uses</text></g><!--link Web Server to ObjectRecognition--><g id="link_Web Server_ObjectRecognition"><path d="M179.968,195.94 C155.708,209.69 128.948,229.83 115.268,256.6 C95.978,294.35 88.498,322.73 119.268,351.89 C131.598,363.57 179.738,353.02 195.268,359.89 C219.273,370.51 241.373,389.8825 257.7817,407.0363 C261.8839,411.3247 265.6304,415.4745 268.962,419.3141 C270.6278,421.234 272.1899,423.0763 273.6409,424.8196 C274.3664,425.6913 275.0641,426.5382 275.7331,427.3578 C275.9004,427.5626 272.2822,423.1092 272.4459,423.3106 " fill="none" id="Web Server-to-ObjectRecognition" style="stroke:#181818;stroke-width:1.0;"/><polygon fill="#181818" points="276.2295,427.9672,273.6585,418.4599,273.0765,424.0867,267.4496,423.5047,276.2295,427.9672" style="stroke:#181818;stroke-width:1.0;"/><text fill="#000000" font-family="sans-serif" font-size="13" lengthAdjust="spacing" textLength="30" x="116.268" y="284.3069">uses</text></g><!--link Camera Module to OCR--><g id="link_Camera Module_OCR"><path d="M357.538,303.32 C341.348,312.03 321.908,321.24 303.268,326.89 C246.688,344.06 83.448,320.61 39.268,359.89 C35.9067,362.8788 33.0663,366.3336 30.6697,370.0978 C30.0706,371.0389 29.4992,371.9993 28.9544,372.9766 C28.682,373.4652 28.4162,373.9581 28.1569,374.4549 C28.0272,374.7033 27.8992,374.9526 27.7728,375.2029 C27.7096,375.3281 30.3164,370.0801 30.254,370.2057 " fill="none" id="Camera Module-to-OCR" style="stroke:#181818;stroke-width:1.0;"/><polygon fill="#181818" points="27.5843,375.5791,35.1711,369.2989,29.8091,371.1013,28.0066,365.7393,27.5843,375.5791" style="stroke:#181818;stroke-width:1.0;"/><text fill="#000000" font-family="sans-serif" font-size="13" lengthAdjust="spacing" textLength="56" x="173.268" y="347.9569">captures</text></g><!--link Camera Module to FaceDetection--><g id="link_Camera Module_FaceDetection"><path d="M414.178,303.37 C432.358,325.12 460.523,358.81 484.4392,387.4175 C496.3973,401.7213 507.2933,414.7544 515.3478,424.3891 C517.3614,426.7977 519.1975,428.994 520.8281,430.9446 C520.9301,431.0665 517.1829,426.5841 517.2832,426.7041 " fill="none" id="Camera Module-to-FaceDetection" style="stroke:#181818;stroke-width:1.0;"/><polygon fill="#181818" points="521.1315,431.3075,518.428,421.8369,517.9246,427.4713,512.2902,426.9679,521.1315,431.3075" style="stroke:#181818;stroke-width:1.0;"/><text fill="#000000" font-family="sans-serif" font-size="13" lengthAdjust="spacing" textLength="56" x="454.268" y="347.9569">captures</text></g><!--link Camera Module to ObjectRecognition--><g id="link_Camera Module_ObjectRecognition"><path d="M358.638,303.17 C339.528,316.99 317.788,336.53 306.268,359.89 C304.278,363.925 302.4767,368.1728 300.8477,372.5227 C300.4404,373.6102 302.033,369.0433 301.647,370.1418 " fill="none" id="Camera Module-to-ObjectRecognition" style="stroke:#181818;stroke-width:1.0;"/><polygon fill="#181818" points="299.6579,375.8026,306.4153,368.6375,301.3155,371.0853,298.8677,365.9854,299.6579,375.8026" style="stroke:#181818;stroke-width:1.0;"/><text fill="#000000" font-family="sans-serif" font-size="13" lengthAdjust="spacing" textLength="56" x="323.268" y="347.9569">captures</text></g><!--SRC=[XOz13e8m44Ntd68km0LSc1ZKoC9e0EF2i1ZAQ33IahQO6EFTBJOYfI4kP_wRF_ypKJU24zTmf49Lck0P09mEYYJ4N9Cy8wEyMnaTKf9tafynorBOYhAzMJN2cYJscrV0UkDTb5ZJ_ICZPOoHQPTOcnzBqiHq9RXbDuWoGiMm7BiLLyCbnCI5Lpz-LH9Vn1qQZCD36CxT-CF1ggFuFZ2iwwbTmncqYfIlkTscAB_LbtIJsJ3cNsu0XerkvHJaFFwFUmc69sy0]--></g></svg>