<?xml version="1.0" encoding="us-ascii" standalone="no"?><svg xmlns="http://www.w3.org/2000/svg" xmlns:xlink="http://www.w3.org/1999/xlink" contentStyleType="text/css" height="654px" preserveAspectRatio="none" style="width:436px;height:654px;background:#FFFFFF;" version="1.1" viewBox="0 0 436 654" width="436px" zoomAndPan="magnify"><defs/><g><ellipse cx="242.5" cy="20" fill="#222222" rx="10" ry="10" style="stroke:#222222;stroke-width:1.0;"/><rect fill="#F1F1F1" height="33.9688" rx="12.5" ry="12.5" style="stroke:#181818;stroke-width:0.5;" width="215" x="135" y="50"/><text fill="#000000" font-family="sans-serif" font-size="12" lengthAdjust="spacing" textLength="195" x="145" y="71.1387">User interacts with the website</text><rect fill="#F1F1F1" height="33.9688" rx="12.5" ry="12.5" style="stroke:#181818;stroke-width:0.5;" width="199" x="143" y="103.9688"/><text fill="#000000" font-family="sans-serif" font-size="12" lengthAdjust="spacing" textLength="179" x="153" y="125.1074">Web server receives request</text><rect fill="#F1F1F1" height="33.9688" rx="12.5" ry="12.5" style="stroke:#181818;stroke-width:0.5;" width="251" x="117" y="157.9375"/><text fill="#000000" font-family="sans-serif" font-size="12" lengthAdjust="spacing" textLength="231" x="127" y="179.0762">Capture image using Camera Module</text><rect fill="#555555" height="6" rx="2.5" ry="2.5" style="stroke:#555555;stroke-width:1.0;" width="279" x="103" y="211.9063"/><rect fill="#F1F1F1" height="33.9688" rx="12.5" ry="12.5" style="stroke:#181818;stroke-width:0.5;" width="228" x="128.5" y="237.9063"/><text fill="#000000" font-family="sans-serif" font-size="12" lengthAdjust="spacing" textLength="208" x="138.5" y="259.0449">Process image for text using OCR</text><rect fill="#F1F1F1" height="33.9688" rx="12.5" ry="12.5" style="stroke:#181818;stroke-width:0.5;" width="228" x="128.5" y="281.875"/><text fill="#000000" font-family="sans-serif" font-size="12" lengthAdjust="spacing" textLength="208" x="138.5" y="303.0137">Process image for face detection</text><rect fill="#F1F1F1" height="33.9688" rx="12.5" ry="12.5" style="stroke:#181818;stroke-width:0.5;" width="251" x="117" y="325.8438"/><text fill="#000000" font-family="sans-serif" font-size="12" lengthAdjust="spacing" textLength="231" x="127" y="346.9824">Process image for object recognition</text><rect fill="#555555" height="6" rx="2.5" ry="2.5" style="stroke:#555555;stroke-width:1.0;" width="279" x="103" y="369.8125"/><rect fill="#F1F1F1" height="33.9688" rx="12.5" ry="12.5" style="stroke:#181818;stroke-width:0.5;" width="109" x="188" y="395.8125"/><text fill="#000000" font-family="sans-serif" font-size="12" lengthAdjust="spacing" textLength="89" x="198" y="416.9512">Collect results</text><polygon fill="#F1F1F1" points="191.5,449.7813,293.5,449.7813,305.5,461.7813,293.5,473.7813,191.5,473.7813,179.5,461.7813,191.5,449.7813" style="stroke:#181818;stroke-width:0.5;"/><text fill="#000000" font-family="sans-serif" font-size="11" lengthAdjust="spacing" textLength="102" x="191.5" y="465.5894">Results available?</text><text fill="#000000" font-family="sans-serif" font-size="11" lengthAdjust="spacing" textLength="20" x="159.5" y="459.187">yes</text><text fill="#000000" font-family="sans-serif" font-size="11" lengthAdjust="spacing" textLength="14" x="305.5" y="459.187">no</text><rect fill="#F1F1F1" height="33.9688" rx="12.5" ry="12.5" style="stroke:#181818;stroke-width:0.5;" width="246" x="11" y="483.7813"/><text fill="#000000" font-family="sans-serif" font-size="12" lengthAdjust="spacing" textLength="226" x="21" y="504.9199">Convert results to speech using TTS</text><rect fill="#F1F1F1" height="33.9688" rx="12.5" ry="12.5" style="stroke:#181818;stroke-width:0.5;" width="148" x="277" y="483.7813"/><text fill="#000000" font-family="sans-serif" font-size="12" lengthAdjust="spacing" textLength="128" x="287" y="504.9199">Handle missing data</text><polygon fill="#F1F1F1" points="242.5,523.75,254.5,535.75,242.5,547.75,230.5,535.75,242.5,523.75" style="stroke:#181818;stroke-width:0.5;"/><rect fill="#F1F1F1" height="33.9688" rx="12.5" ry="12.5" style="stroke:#181818;stroke-width:0.5;" width="218" x="133.5" y="567.75"/><text fill="#000000" font-family="sans-serif" font-size="12" lengthAdjust="spacing" textLength="198" x="143.5" y="588.8887">Display results and play speech</text><ellipse cx="242.5" cy="632.7188" fill="none" rx="11" ry="11" style="stroke:#222222;stroke-width:1.0;"/><ellipse cx="242.5" cy="632.7188" fill="#222222" rx="6" ry="6" style="stroke:#222222;stroke-width:1.0;"/><line style="stroke:#181818;stroke-width:1.0;" x1="242.5" x2="242.5" y1="30" y2="50"/><polygon fill="#181818" points="238.5,40,242.5,50,246.5,40,242.5,44" style="stroke:#181818;stroke-width:1.0;"/><line style="stroke:#181818;stroke-width:1.0;" x1="242.5" x2="242.5" y1="83.9688" y2="103.9688"/><polygon fill="#181818" points="238.5,93.9688,242.5,103.9688,246.5,93.9688,242.5,97.9688" style="stroke:#181818;stroke-width:1.0;"/><line style="stroke:#181818;stroke-width:1.0;" x1="242.5" x2="242.5" y1="137.9375" y2="157.9375"/><polygon fill="#181818" points="238.5,147.9375,242.5,157.9375,246.5,147.9375,242.5,151.9375" style="stroke:#181818;stroke-width:1.0;"/><line style="stroke:#181818;stroke-width:1.0;" x1="242.5" x2="242.5" y1="217.9063" y2="237.9063"/><polygon fill="#181818" points="238.5,227.9063,242.5,237.9063,246.5,227.9063,242.5,231.9063" style="stroke:#181818;stroke-width:1.0;"/><line style="stroke:#181818;stroke-width:1.0;" x1="242.5" x2="242.5" y1="191.9063" y2="211.9063"/><polygon fill="#181818" points="238.5,201.9063,242.5,211.9063,246.5,201.9063,242.5,205.9063" style="stroke:#181818;stroke-width:1.0;"/><line style="stroke:#181818;stroke-width:1.0;" x1="242.5" x2="242.5" y1="375.8125" y2="395.8125"/><polygon fill="#181818" points="238.5,385.8125,242.5,395.8125,246.5,385.8125,242.5,389.8125" style="stroke:#181818;stroke-width:1.0;"/><line style="stroke:#181818;stroke-width:1.0;" x1="179.5" x2="134" y1="461.7813" y2="461.7813"/><line style="stroke:#181818;stroke-width:1.0;" x1="134" x2="134" y1="461.7813" y2="483.7813"/><polygon fill="#181818" points="130,473.7813,134,483.7813,138,473.7813,134,477.7813" style="stroke:#181818;stroke-width:1.0;"/><line style="stroke:#181818;stroke-width:1.0;" x1="305.5" x2="351" y1="461.7813" y2="461.7813"/><line style="stroke:#181818;stroke-width:1.0;" x1="351" x2="351" y1="461.7813" y2="483.7813"/><polygon fill="#181818" points="347,473.7813,351,483.7813,355,473.7813,351,477.7813" style="stroke:#181818;stroke-width:1.0;"/><line style="stroke:#181818;stroke-width:1.0;" x1="134" x2="134" y1="517.75" y2="535.75"/><line style="stroke:#181818;stroke-width:1.0;" x1="134" x2="230.5" y1="535.75" y2="535.75"/><polygon fill="#181818" points="220.5,531.75,230.5,535.75,220.5,539.75,224.5,535.75" style="stroke:#181818;stroke-width:1.0;"/><line style="stroke:#181818;stroke-width:1.0;" x1="351" x2="351" y1="517.75" y2="535.75"/><line style="stroke:#181818;stroke-width:1.0;" x1="351" x2="254.5" y1="535.75" y2="535.75"/><polygon fill="#181818" points="264.5,531.75,254.5,535.75,264.5,539.75,260.5,535.75" style="stroke:#181818;stroke-width:1.0;"/><line style="stroke:#181818;stroke-width:1.0;" x1="242.5" x2="242.5" y1="429.7813" y2="449.7813"/><polygon fill="#181818" points="238.5,439.7813,242.5,449.7813,246.5,439.7813,242.5,443.7813" style="stroke:#181818;stroke-width:1.0;"/><line style="stroke:#181818;stroke-width:1.0;" x1="242.5" x2="242.5" y1="547.75" y2="567.75"/><polygon fill="#181818" points="238.5,557.75,242.5,567.75,246.5,557.75,242.5,561.75" style="stroke:#181818;stroke-width:1.0;"/><line style="stroke:#181818;stroke-width:1.0;" x1="242.5" x2="242.5" y1="601.7188" y2="621.7188"/><polygon fill="#181818" points="238.5,611.7188,242.5,621.7188,246.5,611.7188,242.5,615.7188" style="stroke:#181818;stroke-width:1.0;"/><!--SRC=[XP0zKiGm38LxdqBbxXMIWY8KD0pCiWoruYY9mB6pbf9bRu_oCrimpD19ylUUdoIAMLtnBfI1er96hm9NrXwq9xXIBQnKkkA3QZ1eDYwJ9vv9hBXC96gl5OuwPG8Ui2EOX6C75Gvc1y-fcO8vk3RbBmTGlERaIMHdRGfAtxgBNgfJQL13Yhx_csxHqmAGLqxnFphLdmOkcLCN-PU2OWDhBDiWXR21CWMLqd4BXzFM0Cx80Uj03yVbB14EDvBZyc6LeftaBWDD82EHx_TzpkUtqb4GWaDCg-89OnC81fOLQ52nN89mQoaUMSQ0jxkTiR0EDjFIYQRn1m00]--></g></svg>